<?xml version="1.0" encoding="UTF-8"?>
<svg version="1.1" viewBox="0 0 146 146" xmlns="http://www.w3.org/2000/svg" xmlns:xlink="http://www.w3.org/1999/xlink" width="146" height="146">
  <defs>
    <filter id="b" x="-.048" y="-.048" width="1.096" height="1.096" color-interpolation-filters="sRGB">
      <feGaussianBlur stdDeviation="3"/>
    </filter>
  </defs>
  <path d="m152 140-146-146h42l104 104z" filter="url(#b)" opacity=".8"/>
  <path d="m146 134-134-134h42l92 92z" fill="#007200"/>
  <g transform="rotate(45)" fill="#fff" font-family="Collegiate" aria-label="Fork me on GitHub">
    <path d="m53.643-19.486c0 0.688-0.016 1.2-0.064 1.504h2.08c-0.048-0.32-0.064-0.8-0.064-1.424v-3.344h1.76c0.416 0 0.736 0.016 0.944 0.048v-1.76c-0.24 0.032-0.592 0.048-1.088 0.048h-1.616v-2.496h1.936c0.56 0 0.944 0.016 1.184 0.048v-1.792h-5.136c0.048 0.272 0.064 0.784 0.064 1.504z"/>
    <path id="a" d="m62.424-17.87c1.008 0 1.776-0.368 2.272-1.088 0.432-0.624 0.656-1.472 0.656-2.544 0-2.416-0.976-3.616-2.928-3.616-1.968 0-2.96 1.2-2.96 3.616 0 1.072 0.224 1.936 0.656 2.56 0.512 0.72 1.28 1.072 2.304 1.072zm-0.016-5.68c0.496 0 0.816 0.24 0.976 0.704 0.096 0.272 0.144 0.72 0.144 1.344 0 0.64-0.048 1.088-0.144 1.36-0.16 0.464-0.48 0.688-0.976 0.688s-0.816-0.24-0.976-0.704c-0.096-0.272-0.144-0.72-0.144-1.344s0.048-1.072 0.144-1.344c0.16-0.464 0.48-0.704 0.976-0.704z"/>
    <path d="m68.293-17.982c-0.032-0.24-0.048-0.64-0.048-1.184v-3.888c0.352-0.304 0.672-0.464 0.976-0.464 0.224 0 0.48 0.096 0.752 0.288v-1.808c-0.224-0.08-0.432-0.128-0.624-0.128-0.448 0-0.832 0.192-1.152 0.56v-0.48h-1.744c0.032 0.192 0.048 0.544 0.048 1.04v4.976c0 0.512-0.016 0.88-0.048 1.088z"/>
    <path d="m72.857-17.982c-0.032-0.24-0.048-0.64-0.048-1.184v-2.448l1.472 2.816c0.208 0.384 0.32 0.656 0.368 0.816h1.872l-2.352-4.416 2.144-2.752h-2.064c-0.08 0.176-0.192 0.352-0.352 0.56l-1.088 1.44v-4.496c0-0.464 0.016-0.8 0.048-1.008h-1.824c0.032 0.192 0.048 0.544 0.048 1.04v8.544c0 0.512-0.016 0.88-0.048 1.088z"/>
    <path d="m85.08-24.478c-0.384-0.432-0.896-0.656-1.52-0.656-0.416 0-0.864 0.192-1.328 0.56v-0.512l-1.76-0.016c0.032 0.176 0.048 0.544 0.048 1.12v4.992c0 0.496-0.016 0.832-0.048 1.008h1.856c0-0.064-0.048-0.64-0.048-1.008v-3.984c0.304-0.288 0.608-0.432 0.928-0.432 0.656 0 0.864 0.416 0.864 1.76l-0.016 2.16c0 0.656-0.032 1.168-0.08 1.504h1.92c-0.048-0.256-0.064-0.752-0.064-1.472v-2.192c0-0.56-0.048-1.056-0.144-1.504 0.208-0.176 0.544-0.256 0.976-0.256 0.64 0 0.96 0.592 0.96 1.76v2.16c0 0.656-0.032 1.168-0.08 1.504h1.904c-0.048-0.256-0.064-0.752-0.064-1.472v-2.192c0-0.96-0.176-1.744-0.512-2.368-0.432-0.752-1.056-1.12-1.888-1.12-0.736 0-1.376 0.224-1.904 0.656z"/>
    <path d="m95.905-20.99c0.032-0.304 0.048-0.624 0.048-0.992 0-0.944-0.224-1.696-0.656-2.256-0.464-0.592-1.136-0.896-2.016-0.896-0.896 0-1.6 0.368-2.112 1.088-0.464 0.656-0.688 1.456-0.688 2.432 0 1.136 0.272 2.048 0.832 2.704 0.576 0.72 1.392 1.072 2.448 1.072 0.496 0 1.056-0.128 1.712-0.368v-1.712c-0.464 0.304-1.008 0.464-1.6 0.464-0.944 0-1.44-0.512-1.52-1.536zm-2.576-2.672c0.64 0 0.96 0.4 0.976 1.216h-1.968c0.048-0.816 0.368-1.216 0.992-1.216z"/>
    <use transform="translate(40.438)" xlink:href="#a"/>
    <path d="m110.19-25.15c-0.496 0-0.992 0.208-1.472 0.64v-0.576h-1.76c0.032 0.176 0.048 0.56 0.048 1.184v4.912c0 0.496-0.016 0.832-0.048 1.008h1.856c0-0.064-0.048-0.64-0.048-1.008v-3.936c0.368-0.352 0.736-0.528 1.088-0.528 0.784 0 1.168 0.608 1.152 1.808l-0.016 2.16c-0.016 0.752-0.032 1.264-0.064 1.504h1.92c-0.048-0.256-0.064-0.752-0.064-1.472v-2.192c0-0.944-0.192-1.744-0.592-2.384-0.464-0.752-1.136-1.136-2-1.12z"/>
    <path d="m123.88-17.982c0.144 0.016 0.256 0.016 0.336 0 0-0.192-0.064-0.768-0.064-1.36v-1.856c0-0.56 0.016-1.056 0.064-1.52h-1.952c0.032 0.704 0.048 1.12 0.032 1.248 0 1.28-0.512 1.92-1.552 1.92-1.264 0-1.904-1.264-1.904-3.776 0-2.48 0.784-3.728 2.352-3.728 0.752 0 1.472 0.288 2.16 0.88v-1.824c-0.608-0.528-1.328-0.8-2.16-0.8-2.896 0-4.416 1.904-4.416 5.424 0 3.696 1.328 5.552 3.968 5.552 0.592 0 1.12-0.128 1.584-0.368 0.368-0.208 0.624-0.432 0.768-0.688z"/>
    <path d="m126.49-26.334c0.592 0 1.104-0.544 1.104-1.184 0-0.656-0.512-1.2-1.104-1.2-0.624 0-1.12 0.544-1.12 1.2 0 0.64 0.496 1.184 1.12 1.184zm0.896 8.352c-0.016-0.24-0.032-0.64-0.032-1.184v-4.912c0-0.464 0.016-0.8 0.032-1.008h-1.808c0.016 0.192 0.032 0.544 0.032 1.04v4.976c0 0.512-0.016 0.88-0.032 1.088z"/>
    <path d="m130.78-25.742c0-0.256 0.016-0.48 0.048-0.688h-1.856c0.032 0.176 0.048 0.416 0.048 0.72v0.624h-0.784v1.552c0.224-0.032 0.4-0.048 0.544-0.048l0.24 0.016v0.032h-0.016v2.864c0 0.896 0.112 1.552 0.336 1.968 0.304 0.56 0.832 0.832 1.616 0.832 0.56 0 1.024-0.112 1.424-0.32v-1.6c-0.272 0.176-0.56 0.272-0.896 0.272-0.464 0-0.704-0.352-0.704-1.072v-2.976h0.688c0.256 0 0.592 0.032 0.704 0.032v-1.552h-1.392z"/>
    <path d="m140.26-27.678c0-0.416 0.016-0.736 0.064-0.976h-2.096c0.048 0.24 0.064 0.688 0.064 1.344v2.8h-2.912v-3.024c0-0.48 0.016-0.848 0.064-1.12h-2.08c0.048 0.256 0.064 0.624 0.064 1.12v8.432c0 0.496-0.016 0.864-0.064 1.12h2.08c-0.048-0.24-0.064-0.656-0.064-1.232v-3.552h2.912v3.568c0 0.528-0.016 0.944-0.064 1.216h2.096c-0.048-0.24-0.064-0.624-0.064-1.12v-3.664h0.528v-1.744h-0.528z"/>
    <path d="m144.4-17.918c0.56 0 1.072-0.208 1.568-0.64v0.576h1.744c-0.016-0.176-0.032-0.576-0.032-1.2v-4.896c0-0.496 0.016-0.832 0.032-1.008h-1.856c0 0.048 0.064 0.64 0.064 1.008v3.936c-0.368 0.352-0.704 0.528-1.008 0.528-0.432 0-0.72-0.16-0.88-0.496-0.144-0.272-0.208-0.704-0.208-1.312l0.016-2.16c0.016-0.768 0.032-1.264 0.064-1.504h-1.92c0.048 0.256 0.064 0.752 0.064 1.472v2.192c0 0.976 0.16 1.776 0.48 2.384 0.4 0.752 1.024 1.12 1.872 1.12z"/>
    <path d="m152.31-17.934c0.848 0 1.536-0.416 2.048-1.232 0.432-0.704 0.64-1.536 0.64-2.48 0-0.928-0.208-1.712-0.608-2.368-0.48-0.752-1.136-1.12-1.984-1.12-0.464 0-0.944 0.16-1.44 0.464v-2.784c0-0.608 0.016-1.008 0.032-1.2h-1.824c0.032 0.176 0.048 0.576 0.048 1.2v8.464c0 0.496-0.016 0.832-0.048 1.008h1.696v-0.576c0.384 0.416 0.864 0.624 1.44 0.624zm-0.24-5.52c0.736 0 1.104 0.608 1.104 1.808 0 0.496-0.08 0.928-0.256 1.296-0.208 0.464-0.528 0.688-0.944 0.688-0.336 0-0.672-0.16-1.008-0.496v-2.768c0.384-0.352 0.752-0.528 1.104-0.528z"/>
  </g>
  <path d="m52 0 94 94m-132-94 132 132" fill="none" stroke="#fff" stroke-dasharray="2, 1" stroke-opacity=".95"/>
</svg>
