<svg xmlns="http://www.w3.org/2000/svg" width="1024" height="1024"><linearGradient id="a" x1="160.01" x2="100.01" y1="40.008" y2="180" gradientUnits="userSpaceOnUse"><stop offset="0" stop-color="#37aee2"/><stop offset="1" stop-color="#1e96c8"/></linearGradient><path d="M513.607 16.797C232.534 16.684 4.879 244.225 4.879 525.071c0 222.085 142.412 410.869 340.743 480.2 26.71 6.705 22.618-12.275 22.618-25.232v-88.084c-154.233 18.071-160.484-83.993-170.826-101.041-20.913-35.688-70.354-44.781-55.579-61.83 35.12-18.07 70.922 4.547 112.407 65.808 30.005 44.44 88.539 36.938 118.203 29.55 6.479-26.709 20.345-50.577 39.439-69.103C252.083 726.698 185.48 629.18 185.48 513.25c0-56.26 18.526-107.974 54.896-149.686-23.186-68.762 2.16-127.636 5.569-136.388 66.035-5.91 134.683 47.281 140.025 51.487 37.507-10.116 80.356-15.458 128.319-15.458 48.19 0 91.153 5.57 129 15.799 12.843-9.775 76.491-55.465 137.866-49.896 3.296 8.752 28.073 66.262 6.251 134.115 36.825 41.826 55.578 93.994 55.578 150.368 0 116.157-67.057 213.789-227.313 241.976a144.912 144.912 0 0 1 43.303 103.427v127.864c.91 10.23 0 20.345 17.048 20.345 201.287-67.853 346.199-258.001 346.199-482.019 0-280.96-227.768-508.387-508.614-508.387z" fill="url(#a)"/></svg>
