<svg xmlns="http://www.w3.org/2000/svg" viewBox="0 0 240 240"><linearGradient id="a" x1="160.01" x2="100.01" y1="40.008" y2="180" gradientUnits="userSpaceOnUse"><stop offset="0" stop-color="#37aee2"/><stop offset="1" stop-color="#1e96c8"/></linearGradient><path d="M120 0C53.7 0 0 53.7 0 120s53.7 120 120 120 120-53.7 120-120S186.3 0 120 0zm55.9 109.7c-3.4 22.8-7.4 45.5-11.3 68.2-1.3 7.6-10.8 11.5-16.9 6.6l-43.6-29.6c-4.7-4.8-.3-11.7 3.9-15.1 12-11.8 24.7-21.9 36.1-34.3 3.1-7.4-6-1.2-9 .7-16.4 11.3-32.4 23.3-49.8 33.3-8.8 4.9-19.2.7-28-2-7.9-3.3-19.5-6.6-12.7-11.6 14-7.7 29.7-14.2 44.3-20.7l76-30.8c5-1.7 13.9-3.3 14.8 4.1-.4 10.5-2.4 20.8-3.8 31.2z" fill="url(#a)"/></svg>
