<svg xmlns="http://www.w3.org/2000/svg" viewBox="0 0 472.78 92.83" width="400px"><defs><style>.a{fill:#53bf9d;}.b{fill:#f94c66;}.c{fill:#bd4291;}.d{fill:#ffc54d;}</style></defs><path class="a" d="M15.92,5.75h9.49V38.93a32.4,32.4,0,0,1,7.34-6.58,16,16,0,0,1,8.33-2A13.19,13.19,0,0,1,51,34.7a14.74,14.74,0,0,1,4.18,10.51V76.59h-9.5V47.88a10.23,10.23,0,0,0-2.16-6.82,7.06,7.06,0,0,0-5.7-2.57A11.59,11.59,0,0,0,29,42.37a13.22,13.22,0,0,0-3.63,9.38V76.59H15.92Z" transform="translate(-15.92 -4.88)"/><path class="a" d="M63.28,53.88q0-9.21,7.29-16.4a23.16,23.16,0,0,1,16.72-7.17,23.57,23.57,0,0,1,17,7.06,22.36,22.36,0,0,1,7.26,16.51,23.14,23.14,0,0,1-7.13,16.73Q97.29,77.84,88,77.84a24,24,0,0,1-17.33-7.15A22.72,22.72,0,0,1,63.28,53.88Zm39.08,0a13.47,13.47,0,0,0-4.37-10,14.41,14.41,0,0,0-10.37-4.24A14.75,14.75,0,0,0,77,44a13.72,13.72,0,0,0-4.45,10.25,13.3,13.3,0,0,0,4.5,9.95,14.86,14.86,0,0,0,10.56,4.26,14.21,14.21,0,0,0,10.32-4.37A13.92,13.92,0,0,0,102.36,53.91Z" transform="translate(-15.92 -4.88)"/><path class="a" d="M147.22,29.65l12.6,29.87,13.3-28h8.29L159.28,77.84,147.22,49.11,135.16,77.46l-22.08-45.9h8.3l13.38,27.69Z" transform="translate(-15.92 -4.88)"/><path class="b" d="M178,7.06h42.51v9.49H204v60h-9.38v-60H178Z" transform="translate(-15.92 -4.88)"/><path class="b" d="M222.6,41.41q0-15,11.36-25.79A38.27,38.27,0,0,1,261.24,4.88,37.29,37.29,0,0,1,288,15.7q11.23,10.83,11.24,25.71a35.83,35.83,0,0,1-11.11,26.64q-11.1,10.89-27.26,10.88a37.32,37.32,0,0,1-27.12-11A35.81,35.81,0,0,1,222.6,41.41Zm66.58.44a25.67,25.67,0,0,0-8.29-19.38,28.53,28.53,0,0,0-20.41-7.88,27.25,27.25,0,0,0-19.73,8,25.93,25.93,0,0,0-8.21,19.25A25.35,25.35,0,0,0,241,61.12,29.08,29.08,0,0,0,261.62,69,26.71,26.71,0,0,0,281,61,25.94,25.94,0,0,0,289.18,41.85Z" transform="translate(-15.92 -4.88)"/><path class="c" d="M306.39,53.88q0-9.21,7.28-16.4a23.18,23.18,0,0,1,16.73-7.17,23.57,23.57,0,0,1,17,7.06,22.36,22.36,0,0,1,7.26,16.51,23.17,23.17,0,0,1-7.12,16.73q-7.12,7.23-16.46,7.23a24,24,0,0,1-17.32-7.15A22.68,22.68,0,0,1,306.39,53.88Zm39.07,0a13.47,13.47,0,0,0-4.37-10,14.38,14.38,0,0,0-10.36-4.24A14.77,14.77,0,0,0,320.11,44a13.76,13.76,0,0,0-4.45,10.25,13.27,13.27,0,0,0,4.51,9.95,14.86,14.86,0,0,0,10.56,4.26A14.18,14.18,0,0,0,341,64.08,13.88,13.88,0,0,0,345.46,53.91Z" transform="translate(-15.92 -4.88)"/><path class="a" d="M400.17,31.56h9.28V74.79A22.27,22.27,0,0,1,402.87,91,21.47,21.47,0,0,1,387,97.71a23.58,23.58,0,0,1-13-3.85,22.21,22.21,0,0,1-8.73-11.71H375q4.42,7.32,12.28,7.32a12.31,12.31,0,0,0,9.12-3.85,12.76,12.76,0,0,0,3.76-9.25V67.85q-6.87,10-17.35,10-8.62,0-15-7.12a24.36,24.36,0,0,1-6.41-16.84,24,24,0,0,1,6.25-16.64q6.24-6.93,14.87-6.93,11.13,0,17.68,10.75ZM401.48,54a14.15,14.15,0,0,0-4.39-10.59,15.07,15.07,0,0,0-10.89-4.25,14.54,14.54,0,0,0-10.48,4.42,13.86,13.86,0,0,0-4.53,10.2,14.82,14.82,0,0,0,4.48,10.81,14.44,14.44,0,0,0,10.64,4.53A15.14,15.14,0,0,0,401.48,54Z" transform="translate(-15.92 -4.88)"/><path class="d" d="M422.48,5.75H432V76.59h-9.5Z" transform="translate(-15.92 -4.88)"/><path class="c" d="M488.69,55.9H450.27Q451.53,62.83,456,66a16.35,16.35,0,0,0,9.69,3.19,16.82,16.82,0,0,0,13.54-6.71l6.93,5.24q-7.81,10.09-20.91,10.09A22.6,22.6,0,0,1,448.42,71a23.33,23.33,0,0,1-6.77-17.08,22.91,22.91,0,0,1,6.85-16.56,23.23,23.23,0,0,1,33.37.11Q488.8,44.56,488.69,55.9Zm-37.44-7.58h27.51Q474.17,39,465.22,39,455.45,39,451.25,48.32Z" transform="translate(-15.92 -4.88)"/></svg>
